<svg width="40" height="40" fill="none" xmlns="http://www.w3.org/2000/svg"><g clip-path="url(#clip0_10103:6)"><path d="M39.902 37.386l-1.697-5.99a5.376 5.376 0 01.207-3.572 19.919 19.919 0 001.575-8.551C39.61 8.71 30.927.19 20.362.003 9.029-.198-.198 9.029.002 20.362.193 30.928 8.71 39.61 19.27 39.987a19.984 19.984 0 007.55-1.183c1.869-.678 3.898-.794 5.808-.25l4.752 1.351c1.537.438 2.957-.982 2.522-2.519zM11.065 20a8.935 8.935 0 1117.87 0 8.935 8.935 0 01-17.87 0z" fill="url(#paint0_linear_10103:6)"/><path d="M37.892 29.02s-.07-.222-.207-.617c-1.065-3.018-6.243-16.085-16.48-17.253 4.365.587 7.73 4.326 7.73 8.85 0 4.934-4 8.935-8.935 8.935v11.062c2.394 0 4.691-.417 6.82-1.19 1.869-.678 3.898-.794 5.809-.25l4.752 1.352c1.536.435 2.957-.983 2.522-2.522l-1.698-5.99a5.436 5.436 0 01-.167-2.155l-.146-.222z" fill="url(#paint1_linear_10103:6)"/></g><defs><linearGradient id="paint0_linear_10103:6" x1="4.852" y1="0" x2="40.375" y2="2.97" gradientUnits="userSpaceOnUse"><stop stop-color="#DF5950"/><stop offset="1" stop-color="#451046"/></linearGradient><linearGradient id="paint1_linear_10103:6" x1="22.424" y1="11.15" x2="40.234" y2="12.181" gradientUnits="userSpaceOnUse"><stop stop-color="#DF5950"/><stop offset="1" stop-color="#451046"/></linearGradient><clipPath id="clip0_10103:6"><path fill="#fff" d="M0 0h40v40H0z"/></clipPath></defs></svg>